<svg width="26" height="26" viewBox="0 0 26 26" fill="none" xmlns="http://www.w3.org/2000/svg">
<path d="M14.0753 10.7284C14.4249 10.3343 14.7109 9.93069 15.0796 9.5906C15.6037 9.07861 16.2249 8.67654 16.9066 8.408C17.5883 8.13946 18.3168 8.00988 19.0493 8.02687C19.8917 8.01755 20.7312 8.1245 21.5443 8.3447C23.4068 8.88184 24.4874 10.1659 25.0023 11.9839C25.349 13.3457 25.5041 14.7492 25.4632 16.1538C25.4632 19.116 25.4632 22.0814 25.4632 25.0532C25.4632 25.3329 25.3837 25.4028 25.1136 25.4028C23.5859 25.3901 22.0581 25.3901 20.5304 25.4028C20.2634 25.4028 20.2126 25.3201 20.2126 25.0849C20.2126 22.2626 20.2126 19.4424 20.2126 16.6242C20.2299 15.9159 20.1475 15.2087 19.9679 14.5234C19.6024 13.252 18.6965 12.6164 17.3712 12.6831C15.5595 12.7785 14.6187 13.6748 14.3867 15.515C14.3332 15.9548 14.3067 16.3974 14.3073 16.8404C14.3073 19.5801 14.3073 22.323 14.3073 25.0659C14.3073 25.3392 14.2405 25.4218 13.9608 25.4187C12.4225 25.406 10.8853 25.406 9.34908 25.4187C9.10117 25.4187 9.03125 25.3519 9.03125 25.1008C9.03125 19.668 9.03125 14.2384 9.03125 8.81191C9.03125 8.54176 9.11706 8.49408 9.37132 8.49408C10.8334 8.49408 12.2922 8.49408 13.7542 8.49408C14.0212 8.49408 14.0911 8.57672 14.0721 8.83098C14.0625 9.43169 14.0753 10.0801 14.0753 10.7284Z" fill="black"/>
<path d="M5.70156 16.931C5.70156 19.6198 5.70156 22.3055 5.70156 24.9912C5.70156 25.29 5.62846 25.379 5.31698 25.3758C3.79139 25.3758 2.26579 25.3758 0.740196 25.3758C0.495465 25.3758 0.422363 25.3154 0.422363 25.058C0.422363 19.6188 0.422363 14.1807 0.422363 8.74361C0.422363 8.51795 0.476392 8.42578 0.717945 8.42578C2.26579 8.42578 3.81363 8.42578 5.36147 8.42578C5.66024 8.42578 5.69838 8.53702 5.69838 8.79129C5.70049 11.5035 5.70156 14.2167 5.70156 16.931Z" fill="black"/>
<path d="M6.12919 3.04971C6.13234 3.65348 5.9561 4.24459 5.62281 4.74806C5.28953 5.25153 4.81422 5.64467 4.25719 5.87762C3.70015 6.11057 3.08647 6.17283 2.49399 6.05651C1.90152 5.94018 1.35694 5.65051 0.929333 5.22424C0.501723 4.79797 0.210345 4.25431 0.0921616 3.6622C-0.0260216 3.07009 0.0343216 2.45623 0.26552 1.89846C0.496719 1.34069 0.888358 0.864158 1.39078 0.529296C1.89319 0.194434 2.48375 0.0163337 3.08754 0.0175847C3.89131 0.0217346 4.66111 0.342221 5.23036 0.909688C5.79961 1.47715 6.12252 2.24595 6.12919 3.04971Z" fill="black"/>
</svg>
