<svg width="26" height="28" viewBox="0 0 26 28" fill="none" xmlns="http://www.w3.org/2000/svg">
<path d="M24.9905 6.67868C24.9905 6.55567 24.9905 6.55252 24.8562 6.55252C24.5412 6.5504 24.2268 6.52297 23.9163 6.47051C22.7877 6.30334 19.1271 4.41084 18.5069 1.30716C18.4327 0.924718 18.3825 0.538124 18.3566 0.149584C18.3566 0.00449267 18.3566 0.00449289 18.2095 0.00133874H13.8072C13.5195 0.00133874 13.561 -0.0333572 13.561 0.250517C13.561 6.38219 13.561 12.5149 13.561 18.6487C13.5659 18.8768 13.5498 19.1048 13.5131 19.33C13.4244 19.8588 13.2284 20.3646 12.9369 20.8169C12.6454 21.2693 12.2643 21.6589 11.8166 21.9626C11.3688 22.2662 10.8635 22.4776 10.331 22.584C9.79852 22.6904 9.24972 22.6897 8.71748 22.5819C8.38902 22.5047 8.06808 22.3992 7.75837 22.2665C7.73545 22.2418 7.71088 22.2186 7.68483 22.1971C7.58253 22.112 7.46743 22.0426 7.36513 21.9637C6.03835 21.0585 5.40853 19.8 5.60035 18.226C5.79218 16.6521 6.72572 15.5482 8.2603 14.9899C8.717 14.8237 9.20339 14.7518 9.68939 14.7785C10.005 14.7914 10.3181 14.839 10.6229 14.9205C10.7284 14.9489 10.786 14.9205 10.7892 14.8038C10.7892 14.7628 10.7892 14.7249 10.7892 14.6871C10.7892 13.5863 10.7476 11.1797 10.7444 11.1765C10.7444 10.8611 10.7444 10.5457 10.7444 10.2303C10.7444 10.1388 10.6997 10.123 10.6229 10.1167C10.0459 10.0479 9.46345 10.0341 8.88373 10.0757C8.08591 10.1338 7.29975 10.2983 6.54668 10.5646C4.93954 11.1331 3.53572 12.1523 2.5077 13.4972C1.47968 14.842 0.872238 16.4538 0.760008 18.1346C0.723226 18.5838 0.723226 19.0353 0.760008 19.4845C0.817172 20.1046 0.941498 20.7169 1.13086 21.3108C1.66575 22.9898 2.70893 24.467 4.12011 25.5437C4.25598 25.669 4.40876 25.7751 4.5741 25.8591L4.79469 26.0515C5.0248 26.2201 5.26983 26.3679 5.52682 26.4931C7.08051 27.2735 8.83455 27.5799 10.5654 27.3731C12.7224 27.1255 14.7119 26.1043 16.1556 24.5039C17.5992 22.9034 18.3962 20.8353 18.395 18.6929C18.4142 15.6396 18.395 12.5864 18.395 9.53004C18.395 9.45749 18.3534 9.3534 18.4333 9.31871C18.5133 9.28401 18.5612 9.37233 18.622 9.41018C19.762 10.158 21.029 10.6975 22.3625 11.003C23.1419 11.1862 23.94 11.2804 24.7411 11.2837C24.9937 11.2837 25.0289 11.2837 25.0289 11.0219C25.0481 9.93377 24.9905 6.96886 24.9905 6.67868Z" fill="black"/>
</svg>
