<svg width="30" height="25" viewBox="0 0 30 25" fill="none" xmlns="http://www.w3.org/2000/svg">
<path d="M9.59436 24.4764C20.5479 24.4764 26.5226 15.4334 26.5226 7.59516C26.5226 7.33698 26.5226 7.08211 26.506 6.82723C27.6699 5.98681 28.6746 4.94672 29.4734 3.7555C28.3886 4.23656 27.237 4.55126 26.0579 4.68894C27.2993 3.94747 28.2287 2.78189 28.6734 1.40868C27.5023 2.09453 26.2227 2.57694 24.8895 2.83531C23.9935 1.8824 22.8072 1.25092 21.5147 1.03876C20.2221 0.826609 18.8955 1.04564 17.7405 1.6619C16.5855 2.27816 15.6666 3.25721 15.1264 4.44725C14.5862 5.63729 14.4547 6.97182 14.7525 8.24393C12.3867 8.12676 10.0721 7.5145 7.95908 6.44696C5.84608 5.37941 3.98196 3.88047 2.48784 2.04752C1.72617 3.3536 1.49267 4.9002 1.83497 6.37202C2.17727 7.84384 3.0696 9.13006 4.33002 9.96847C3.38352 9.94479 2.4567 9.69386 1.62814 9.23695V9.31308C1.62884 10.6838 2.10529 12.012 2.97657 13.0721C3.84785 14.1323 5.06027 14.859 6.40788 15.1288C5.53116 15.3665 4.61164 15.4015 3.71927 15.2315C4.10179 16.4092 4.84272 17.439 5.8391 18.1775C6.83548 18.916 8.03782 19.3267 9.27902 19.3525C7.1711 21.0007 4.56898 21.8948 1.89036 21.8913C1.41557 21.8922 0.941171 21.8646 0.469727 21.8085C3.19077 23.5542 6.35885 24.4805 9.59436 24.4764Z" fill="black"/>
</svg>
