<svg width="282" height="80" viewBox="0 0 282 80" fill="none" xmlns="http://www.w3.org/2000/svg">
<g clip-path="url(#clip0_2_21)">
<path d="M271.559 79.8611C262.989 79.8611 257.372 74.9343 257.372 66.3138C257.372 58.1861 262.496 52.7695 270.376 52.7695C277.766 52.7695 282.001 57.3978 282.001 64.8358V68.4339H265.455C265.897 71.0914 267.82 72.4709 272.499 72.4709C276.339 72.4709 279.642 71.2407 281.756 70.2553V77.0514C279.982 78.5294 275.843 79.8611 271.559 79.8611ZM265.402 63.507H274.267C274.267 61.2407 273.072 59.3685 269.883 59.3685C266.93 59.3685 265.599 61.2407 265.402 63.507Z" fill="white"/>
<path d="M253.427 44.4902V79.3662H245.547V45.4786L253.427 44.4902Z" fill="white"/>
<path d="M241.61 62.9158C239.116 61.1501 236.143 60.1875 233.088 60.1568C229.099 60.1568 226.635 62.5217 226.635 66.3138C226.635 69.9597 229.099 72.4709 233.037 72.4709C236.109 72.4482 239.101 71.4854 241.61 69.7119V77.544C239.343 79.0729 236.142 79.8611 232.694 79.8611C224.664 79.8611 218.66 73.9997 218.66 66.3138C218.66 58.3831 224.766 52.7695 232.795 52.7695C236.193 52.7695 239.346 53.5071 241.613 55.0837L241.61 62.9158Z" fill="white"/>
<path d="M205.842 53.2639V56.3664C207.765 54.5927 210.867 52.7832 214.203 52.7832C215.039 52.7893 215.87 52.9222 216.666 53.1773V61.6007C215.04 60.8088 213.253 60.4002 211.444 60.4064C209.686 60.4006 207.946 60.7521 206.329 61.4395V79.3702H198.455V53.2639H205.842Z" fill="white"/>
<path d="M184.122 46.8575C184.122 44.3463 186.093 42.916 189.344 42.916C192.629 42.916 194.516 44.3463 194.516 46.8575C194.516 49.3687 192.644 50.8467 189.344 50.8467C186.093 50.8467 184.122 49.3687 184.122 46.8575ZM193.235 53.2624V79.3686H185.355V53.2624H193.235Z" fill="white"/>
<path d="M152.2 62.4702C152.2 52.1776 159.934 44.9844 170.475 44.9844C175.5 44.9844 178.504 46.1788 181.164 47.6449V56.2146C178.211 54.0367 174.637 52.8635 170.967 52.8673C165.055 52.8673 161.066 56.5609 161.066 62.4702C161.066 68.3794 165.055 72.076 170.967 72.076C174.637 72.0798 178.211 70.9066 181.164 68.7287V77.2984C178.504 78.7765 175.491 79.9589 170.475 79.9589C159.934 79.9589 152.2 72.7657 152.2 62.4702Z" fill="white"/>
<path d="M143.133 79.8637C139.487 79.8637 135.892 78.4334 135.892 72.4734V56.0715H131.852V55.2414L138.248 48.3379H139.036V53.2647H148.74V56.0715H139.036V72.2286C139.036 75.5788 140.759 76.9553 143.715 76.9553C145.592 76.961 147.429 76.4137 148.997 75.3817V78.2333C147.803 79.0246 145.841 79.8637 143.133 79.8637Z" fill="black"/>
<path d="M116.637 55.8361C112.301 55.8361 108.852 57.9561 106.684 60.2703V56.9051C108.36 55.0837 112.202 52.7695 116.932 52.7695C122.202 52.7695 126.98 55.5256 126.98 62.9636V79.3685H124.075V75.427C121.955 77.7411 118.655 79.8611 114.567 79.8611C109.246 79.8611 106.487 77.1499 106.487 73.1129C106.487 68.6339 110.626 65.1822 117.768 65.1822C119.839 65.1548 121.902 65.4572 123.878 66.078V62.9158C123.878 57.7441 120.429 55.8361 116.637 55.8361ZM123.878 73.3727V68.2368C122.181 67.7376 120.424 67.4724 118.655 67.4485C112.447 67.4485 109.494 69.8104 109.494 72.9636C109.494 76.066 111.907 77.2992 114.961 77.2992C118.458 77.2992 121.56 75.4778 123.878 73.3577V73.3727Z" fill="black"/>
<path d="M100.131 44.8438V79.3734H96.9805V45.4827L100.131 44.8438Z" fill="black"/>
<path d="M91.3718 45.4805V48.5351H71.3151V61.5897H88.9024V64.6414H71.3151V79.3711H68.0813V45.4805H91.3718Z" fill="black"/>
<path d="M62.1369 72.7266H5.65149V79.7884H62.1369V72.7266Z" fill="black"/>
<path d="M58.7786 46.0179C57.7002 47.5298 56.4837 48.9382 55.1447 50.2251C56.0584 51.4195 56.5481 52.6795 56.5481 53.8978C56.5481 59.3173 46.8079 65.3729 33.7742 65.3729C20.7404 65.3729 11.0002 59.3173 11.0002 53.8978C11.0002 52.6377 11.5288 51.3418 12.4932 50.0937C11.1665 48.7981 9.96108 47.3839 8.89215 45.8686C6.74824 48.2573 5.52698 50.9925 5.52698 53.8978C5.52698 63.2558 18.1725 70.8431 33.7712 70.8431C49.3698 70.8431 62.0124 63.2558 62.0124 53.8978C62.0154 51.0611 60.8479 48.3738 58.7786 46.0179ZM23.3203 43.8142C30.2218 41.9428 37.4993 41.9593 44.3922 43.862C46.1234 42.6976 47.6491 41.2536 48.907 39.5891C44.5356 37.9169 39.3519 36.9525 33.7742 36.9525C28.6739 36.9127 23.6073 37.7812 18.8115 39.5174C20.0635 41.1918 21.5876 42.6442 23.3203 43.8142Z" fill="black"/>
<path d="M5.85248 21.8747C4.25156 28.8174 5.33657 36.1087 8.88962 42.2844C12.4427 48.4601 18.2007 53.0629 25.0073 55.1685C31.8139 57.2741 39.1651 56.7265 45.5847 53.6358C52.0042 50.545 57.0168 45.14 59.6157 38.506C62.2146 31.8721 62.2074 24.5005 59.5956 17.8717C56.9838 11.2428 51.9608 5.84748 45.5352 2.76921C39.1097 -0.309051 31.7574 -0.842324 24.9549 1.27648C18.1524 3.39529 12.4034 8.00927 8.86233 14.1919L14.3147 12.1345L15.8853 16.3149C18.8314 12.0121 23.2617 8.94784 28.3273 7.70934C33.3928 6.47085 38.7372 7.14524 43.3363 9.60327C47.9354 12.0613 51.4657 16.1301 53.2505 21.0299C55.0354 25.9296 54.9493 31.3157 53.0088 36.156C51.0683 40.9962 47.4099 44.9501 42.7346 47.26C38.0594 49.5698 32.6961 50.0731 27.6727 48.6734C22.6494 47.2737 18.3192 44.0695 15.5121 39.6748C12.7049 35.2801 11.6183 30.004 12.4604 24.8577L18.0203 27.3719L17.7217 26.5478L14.6312 18.3871L13.0815 14.2904L7.7635 16.297L0.824125 18.9186L0 19.2292L5.85248 21.8747Z" fill="white"/>
</g>
<defs>
<clipPath id="clip0_2_21">
<rect width="282" height="80" fill="white"/>
</clipPath>
</defs>
</svg>
