<svg width="168" height="48" viewBox="0 0 168 48" fill="none" xmlns="http://www.w3.org/2000/svg">
<path d="M161.78 47.5782C156.674 47.5782 153.328 44.643 153.328 39.5074C153.328 34.6653 156.381 31.4385 161.075 31.4385C165.478 31.4385 168 34.1957 168 38.6269V40.7704H158.144C158.407 42.3536 159.552 43.1755 162.34 43.1755C164.628 43.1755 166.595 42.4426 167.854 41.8555V45.9042C166.798 46.7848 164.332 47.5782 161.78 47.5782ZM158.112 37.8353H163.393C163.393 36.4851 162.681 35.3698 160.782 35.3698C159.022 35.3698 158.229 36.4851 158.112 37.8353Z" fill="#0099FF"/>
<path d="M150.977 26.5049V47.2821H146.283V27.0937L150.977 26.5049Z" fill="#0099FF"/>
<path d="M143.937 37.4831C142.451 36.4311 140.68 35.8577 138.86 35.8394C136.483 35.8394 135.016 37.2483 135.016 39.5074C135.016 41.6794 136.483 43.1755 138.83 43.1755C140.66 43.162 142.442 42.5883 143.937 41.5318V46.1978C142.587 47.1085 140.68 47.5782 138.625 47.5782C133.842 47.5782 130.265 44.0862 130.265 39.5074C130.265 34.7828 133.902 31.4385 138.686 31.4385C140.71 31.4385 142.589 31.8779 143.939 32.8171L143.937 37.4831Z" fill="#0099FF"/>
<path d="M122.629 31.7307V33.579C123.774 32.5223 125.623 31.4443 127.61 31.4443C128.108 31.448 128.603 31.5271 129.077 31.6791V36.6973C128.108 36.2256 127.044 35.9821 125.966 35.9858C124.919 35.9824 123.882 36.1918 122.919 36.6013V47.2834H118.228V31.7307H122.629Z" fill="#0099FF"/>
<path d="M109.688 27.9155C109.688 26.4195 110.862 25.5674 112.799 25.5674C114.756 25.5674 115.88 26.4195 115.88 27.9155C115.88 29.4115 114.764 30.2921 112.799 30.2921C110.862 30.2921 109.688 29.4115 109.688 27.9155ZM115.117 31.7312V47.2838H110.422V31.7312H115.117Z" fill="#0099FF"/>
<path d="M90.672 37.2169C90.672 31.0851 95.2793 26.7998 101.559 26.7998C104.553 26.7998 106.342 27.5114 107.927 28.3848V33.4901C106.168 32.1927 104.038 31.4937 101.852 31.496C98.33 31.496 95.9535 33.6965 95.9535 37.2169C95.9535 40.7373 98.33 42.9395 101.852 42.9395C104.038 42.9418 106.168 42.2428 107.927 40.9454V46.0507C106.342 46.9313 104.547 47.6357 101.559 47.6357C95.2793 47.6357 90.672 43.3504 90.672 37.2169Z" fill="#0099FF"/>
<path d="M85.2695 47.5772C83.0975 47.5772 80.9558 46.7251 80.9558 43.1745V33.4032H78.549V32.9086L82.3593 28.7959H82.8289V31.731H88.6102V33.4032H82.8289V43.0286C82.8289 45.0245 83.8553 45.8446 85.6164 45.8446C86.7347 45.848 87.8291 45.5219 88.7632 44.9071V46.6059C88.0517 47.0773 86.883 47.5772 85.2695 47.5772Z" fill="white"/>
<path d="M69.4841 33.2654C66.9011 33.2654 64.8465 34.5284 63.5551 35.907V33.9022C64.553 32.8171 66.8424 31.4385 69.6602 31.4385C72.7999 31.4385 75.6461 33.0804 75.6461 37.5115V47.2846H73.9152V44.9365C72.6522 46.3152 70.6866 47.5782 68.2513 47.5782C65.0814 47.5782 63.4377 45.963 63.4377 43.5579C63.4377 40.8896 65.9032 38.8332 70.1583 38.8332C71.3921 38.817 72.6206 38.9971 73.7978 39.3669V37.4831C73.7978 34.4021 71.7432 33.2654 69.4841 33.2654ZM73.7978 43.7127V40.653C72.7869 40.3556 71.7402 40.1976 70.6866 40.1834C66.9883 40.1834 65.229 41.5905 65.229 43.469C65.229 45.3172 66.6663 46.0519 68.4861 46.0519C70.5692 46.0519 72.4174 44.9668 73.7978 43.7038V43.7127Z" fill="white"/>
<path d="M59.6525 26.7129V47.2837H57.7758V27.0936L59.6525 26.7129Z" fill="white"/>
<path d="M54.4327 27.0938V28.9135H42.4841V36.6908H52.9616V38.5088H42.4841V47.2839H40.5576V27.0938H54.4327Z" fill="white"/>
<path d="M37.0164 43.3262H3.36548V47.5332H37.0164V43.3262Z" fill="white"/>
<path d="M35.0171 27.4141C34.3746 28.3148 33.6499 29.1539 32.8522 29.9206C33.3965 30.6321 33.6883 31.3828 33.6883 32.1086C33.6883 35.3372 27.8856 38.9448 20.1208 38.9448C12.3561 38.9448 6.55339 35.3372 6.55339 32.1086C6.55339 31.3579 6.86825 30.5858 7.44283 29.8423C6.65242 29.0705 5.93432 28.2279 5.29751 27.3252C4.02028 28.7483 3.29272 30.3777 3.29272 32.1086C3.29272 37.6835 10.8262 42.2036 20.1191 42.2036C29.4119 42.2036 36.9436 37.6835 36.9436 32.1086C36.9454 30.4186 36.2499 28.8177 35.0171 27.4141ZM13.893 26.1013C18.0046 24.9865 22.3401 24.9963 26.4465 26.1298C27.4778 25.4361 28.3868 24.5758 29.1362 23.5842C26.5319 22.588 23.4438 22.0135 20.1208 22.0135C17.0824 21.9898 14.064 22.5072 11.2069 23.5415C11.9528 24.539 12.8608 25.4043 13.893 26.1013Z" fill="white"/>
<path d="M3.48659 13.0318C2.53285 17.1678 3.17924 21.5116 5.29595 25.1907C7.41266 28.8699 10.8429 31.6119 14.8979 32.8663C18.953 34.1207 23.3324 33.7945 27.1568 31.9532C30.9812 30.1119 33.9674 26.8919 35.5157 22.9398C37.064 18.9876 37.0597 14.5961 35.5038 10.6469C33.9478 6.69782 30.9554 3.4836 27.1274 1.64974C23.2994 -0.184116 18.9193 -0.50181 14.8668 0.760457C10.8142 2.02272 7.38924 4.77148 5.27969 8.45473L8.5279 7.22909L9.46359 9.71951C11.2187 7.15614 13.8581 5.33063 16.8758 4.5928C19.8936 3.85497 23.0775 4.25674 25.8174 5.7211C28.5573 7.18546 30.6604 9.60941 31.7237 12.5284C32.787 15.4474 32.7358 18.6562 31.5797 21.5397C30.4237 24.4233 28.2442 26.7788 25.4589 28.1549C22.6737 29.531 19.4785 29.8308 16.4859 28.9969C13.4932 28.1631 10.9136 26.2542 9.24123 23.636C7.56889 21.0179 6.92154 17.8747 7.42322 14.8089L10.7355 16.3067L10.5576 15.8157L8.71646 10.954L7.79323 8.51343L4.62506 9.70883L0.490968 11.2707L0 11.4557L3.48659 13.0318Z" fill="#0099FF"/>
</svg>
