<svg width="54" height="54" viewBox="0 0 54 54" fill="none" xmlns="http://www.w3.org/2000/svg">
<circle cx="26.6431" cy="26.5286" r="26.5286" fill="white"/>
<circle cx="26.7558" cy="26.642" r="22.4625" stroke="black" stroke-width="0.230127"/>
<path d="M28.4472 24.4069C28.7805 24.0312 29.0532 23.6464 29.4046 23.3222C29.9043 22.8341 30.4965 22.4508 31.1463 22.1948C31.7962 21.9388 32.4907 21.8153 33.189 21.8315C33.992 21.8226 34.7924 21.9246 35.5675 22.1345C37.3431 22.6465 38.3733 23.8706 38.8641 25.6038C39.1946 26.902 39.3424 28.24 39.3034 29.579C39.3034 32.4029 39.3034 35.2299 39.3034 38.0629C39.3034 38.3295 39.2277 38.3962 38.9701 38.3962C37.5138 38.384 36.0574 38.384 34.601 38.3962C34.3465 38.3962 34.298 38.3174 34.298 38.0932C34.298 35.4026 34.298 32.714 34.298 30.0275C34.3145 29.3522 34.2359 28.678 34.0647 28.0247C33.7162 26.8127 32.8527 26.2067 31.5892 26.2703C29.8622 26.3612 28.9653 27.2157 28.7441 28.97C28.6931 29.3892 28.6678 29.8112 28.6684 30.2335C28.6684 32.8453 28.6684 35.4601 28.6684 38.075C28.6684 38.3356 28.6047 38.4143 28.3381 38.4113C26.8716 38.3992 25.4061 38.3992 23.9417 38.4113C23.7053 38.4113 23.6387 38.3477 23.6387 38.1083C23.6387 32.9291 23.6387 27.753 23.6387 22.5799C23.6387 22.3223 23.7205 22.2769 23.9629 22.2769C25.3566 22.2769 26.7474 22.2769 28.1412 22.2769C28.3957 22.2769 28.4623 22.3557 28.4441 22.5981C28.4351 23.1707 28.4472 23.7888 28.4472 24.4069Z" fill="black"/>
<path d="M20.4641 30.321C20.4641 32.8843 20.4641 35.4446 20.4641 38.0049C20.4641 38.2897 20.3944 38.3746 20.0975 38.3715C18.6431 38.3715 17.1888 38.3715 15.7344 38.3715C15.5011 38.3715 15.4314 38.314 15.4314 38.0685C15.4314 32.8833 15.4314 27.6991 15.4314 22.5159C15.4314 22.3008 15.4829 22.2129 15.7132 22.2129C17.1888 22.2129 18.6643 22.2129 20.1399 22.2129C20.4247 22.2129 20.4611 22.3189 20.4611 22.5613C20.4631 25.1469 20.4641 27.7334 20.4641 30.321Z" fill="black"/>
<path d="M20.8712 17.0878C20.8742 17.6634 20.7062 18.2269 20.3885 18.7069C20.0707 19.1869 19.6176 19.5616 19.0866 19.7837C18.5556 20.0058 17.9705 20.0651 17.4057 19.9542C16.8409 19.8434 16.3218 19.5672 15.9141 19.1608C15.5065 18.7545 15.2287 18.2362 15.116 17.6717C15.0034 17.1073 15.0609 16.5221 15.2813 15.9903C15.5017 15.4586 15.875 15.0043 16.354 14.6851C16.833 14.3659 17.396 14.1961 17.9715 14.1973C18.7378 14.2012 19.4717 14.5068 20.0143 15.0477C20.557 15.5887 20.8648 16.3216 20.8712 17.0878Z" fill="black"/>
</svg>
