<svg width="54" height="54" viewBox="0 0 54 54" fill="none" xmlns="http://www.w3.org/2000/svg">
<circle cx="26.5857" cy="26.5286" r="26.5286" fill="white"/>
<circle cx="26.6984" cy="26.642" r="22.4625" stroke="black" stroke-width="0.230127"/>
<path d="M38.1272 19.818C38.1272 19.7008 38.1272 19.6978 37.9992 19.6978C37.6989 19.6957 37.3992 19.6696 37.1032 19.6196C36.0273 19.4602 32.5376 17.6561 31.9463 14.6973C31.8756 14.3327 31.8278 13.9642 31.8031 13.5938C31.8031 13.4555 31.8031 13.4555 31.6629 13.4524H27.4661C27.1917 13.4524 27.2314 13.4194 27.2314 13.69C27.2314 19.5354 27.2314 25.3818 27.2314 31.2292C27.236 31.4466 27.2207 31.664 27.1857 31.8787C27.1011 32.3828 26.9143 32.865 26.6364 33.2962C26.3585 33.7274 25.9952 34.0989 25.5684 34.3884C25.1415 34.6778 24.6598 34.8793 24.1522 34.9808C23.6445 35.0822 23.1214 35.0815 22.614 34.9788C22.3008 34.9052 21.9949 34.8046 21.6996 34.6781C21.6778 34.6545 21.6544 34.6324 21.6295 34.612C21.532 34.5308 21.4223 34.4646 21.3247 34.3894C20.0599 33.5265 19.4595 32.3267 19.6424 30.8263C19.8252 29.3258 20.7152 28.2734 22.1781 27.7412C22.6135 27.5828 23.0772 27.5143 23.5405 27.5397C23.8413 27.5519 24.1398 27.5973 24.4304 27.6751C24.531 27.7021 24.5859 27.6751 24.5889 27.5638C24.5889 27.5247 24.5889 27.4886 24.5889 27.4525C24.5889 26.4031 24.5493 24.1089 24.5463 24.1059C24.5463 23.8052 24.5463 23.5045 24.5463 23.2038C24.5463 23.1166 24.5036 23.1016 24.4304 23.0956C23.8803 23.0299 23.3251 23.0168 22.7724 23.0565C22.0119 23.1119 21.2624 23.2686 20.5445 23.5225C19.0124 24.0645 17.6741 25.0361 16.6941 26.3182C15.7141 27.6002 15.135 29.1368 15.028 30.7391C14.9929 31.1674 14.9929 31.5977 15.028 32.026C15.0825 32.6171 15.201 33.2008 15.3815 33.767C15.8915 35.3676 16.8859 36.7759 18.2312 37.8023C18.3608 37.9217 18.5064 38.0229 18.664 38.103L18.8743 38.2864C19.0937 38.4471 19.3273 38.588 19.5723 38.7073C21.0534 39.4513 22.7256 39.7434 24.3756 39.5463C26.4319 39.3102 28.3285 38.3368 29.7048 36.811C31.081 35.2853 31.8408 33.3137 31.8396 31.2713C31.8579 28.3606 31.8396 25.45 31.8396 22.5363C31.8396 22.4671 31.8 22.3679 31.8762 22.3348C31.9524 22.3017 31.9981 22.3859 32.056 22.422C33.1428 23.1349 34.3507 23.6492 35.622 23.9405C36.3649 24.1151 37.1258 24.2049 37.8895 24.2081C38.1303 24.2081 38.1638 24.2081 38.1638 23.9585C38.1821 22.9212 38.1272 20.0947 38.1272 19.818Z" fill="black"/>
</svg>
