<svg width="54" height="54" viewBox="0 0 54 54" fill="none" xmlns="http://www.w3.org/2000/svg">
<circle cx="26.7002" cy="26.5286" r="26.5286" fill="white"/>
<circle cx="26.8129" cy="26.642" r="22.4625" stroke="black" stroke-width="0.230127"/>
<path d="M21.5756 38.1099C32.0177 38.1099 37.7134 29.4891 37.7134 22.0168C37.7134 21.7707 37.7134 21.5277 37.6976 21.2847C38.8072 20.4836 39.765 19.492 40.5265 18.3564C39.4923 18.815 38.3946 19.115 37.2704 19.2463C38.4539 18.5394 39.3399 17.4283 39.7639 16.1192C38.6474 16.773 37.4276 17.2329 36.1566 17.4792C35.3024 16.5708 34.1716 15.9688 32.9394 15.7665C31.7072 15.5643 30.4425 15.7731 29.3414 16.3606C28.2403 16.9481 27.3643 17.8814 26.8493 19.0159C26.3343 20.1504 26.209 21.4226 26.4929 22.6353C24.2375 22.5236 22.031 21.9399 20.0166 20.9222C18.0023 19.9045 16.2252 18.4756 14.8008 16.7282C14.0747 17.9733 13.8521 19.4477 14.1785 20.8508C14.5048 22.2539 15.3554 23.4801 16.557 24.2793C15.6547 24.2568 14.7712 24.0175 13.9813 23.582V23.6545C13.9819 24.9612 14.4362 26.2274 15.2668 27.2381C16.0974 28.2487 17.2532 28.9415 18.5379 29.1988C17.7021 29.4253 16.8255 29.4587 15.9748 29.2966C16.3394 30.4194 17.0458 31.401 17.9956 32.1051C18.9455 32.8092 20.0917 33.2007 21.275 33.2252C19.2655 34.7965 16.7848 35.6488 14.2313 35.6455C13.7786 35.6464 13.3264 35.6201 12.877 35.5666C15.471 37.2308 18.4911 38.1138 21.5756 38.1099Z" fill="black"/>
</svg>
